<?xml version='1.0' encoding='iso-8859-1'?>
<!-- License: CC0. Made by SVG Repo: https://www.svgrepo.com/svg/160212/flower -->
<svg version="1.1" xmlns="http://www.w3.org/2000/svg" viewBox="0 0 283.939 283.939" xmlns:xlink="http://www.w3.org/1999/xlink" enable-background="new 0 0 283.939 283.939">
  <path d="m280.632,134.938c-0.808-1.617-20.229-39.752-59.563-51.579-5.669-1.705-11.428-2.76-17.262-3.211-0.46-5.912-1.557-11.742-3.31-17.477-12.038-39.396-50.641-58.623-52.277-59.422l-6.654-3.248-6.625,3.307c-1.618,0.808-39.753,20.229-51.581,59.564-1.706,5.675-2.776,11.438-3.227,17.279-5.906,0.461-11.731,1.542-17.461,3.293-39.398,12.036-58.625,50.64-59.424,52.276l-3.248,6.655 3.307,6.626c0.808,1.617 20.229,39.752 59.563,51.579 5.67,1.705 11.428,2.777 17.264,3.229 0.461,5.906 1.558,11.73 3.309,17.46 12.038,39.396 50.641,58.623 52.277,59.422l6.654,3.248 6.625-3.307c1.618-0.808 39.753-20.229 51.581-59.564 1.705-5.668 2.774-11.425 3.226-17.26 5.907-0.461 11.733-1.561 17.463-3.312 39.396-12.038 58.623-50.641 59.422-52.277l3.248-6.654-3.307-6.627zm-168.604-63.228c5.533-18.675 20.814-31.416 29.69-37.486 9.005,6.03 24.515,18.713 30.146,37.408 2.92,9.695 2.835,20.112-0.207,31.134-8.258-6.269-18.545-9.999-29.689-9.999-11.146,0-21.434,3.731-29.693,10.003-3.02-10.972-3.119-21.365-0.247-31.06zm49.144,70.259c0,10.588-8.614,19.202-19.203,19.202-10.588,0-19.202-8.614-19.202-19.202s8.614-19.202 19.202-19.202c10.589,0 19.203,8.614 19.203,19.202zm-126.944,.257c6.012-8.958 18.656-24.424 37.209-30.093 3.782-1.156 7.675-1.852 11.67-2.094 2.228,8.259 5.614,16.635 10.144,25.104-0.311,2.233-0.484,4.509-0.484,6.826 0,2.326 0.174,4.611 0.488,6.852-4.524,8.457-7.905,16.816-10.133,25.054-3.899-0.232-7.709-0.867-11.411-1.964-18.671-5.533-31.411-20.808-37.483-29.685zm137.682,70.002c-5.533,18.675-20.814,31.416-29.69,37.486-9.005-6.03-24.515-18.713-30.146-37.408-2.92-9.694-2.835-20.112 0.207-31.134 8.258,6.269 18.544,9.999 29.689,9.999 11.147,0 21.435-3.731 29.694-10.003 3.02,10.973 3.119,21.365 0.246,31.06zm40.396-40.363c-3.721,1.12-7.554,1.77-11.481,2.007-2.228-8.251-5.611-16.617-10.137-25.076 0.311-2.233 0.484-4.509 0.484-6.826 0-2.326-0.174-4.611-0.488-6.852 4.524-8.457 7.904-16.816 10.133-25.054 3.899,0.232 7.709,0.868 11.411,1.966 18.675,5.533 31.416,20.813 37.486,29.689-6.029,9.004-18.712,24.514-37.408,30.146z"/>
</svg>
